{
	"asset":{
		"generator":"Khronos glTF Blender I/O v3.6.27",
		"version":"2.0"
	},
	"scene":0,
	"scenes":[
		{
			"name":"Scene",
			"nodes":[
				0
			]
		}
	],
	"nodes":[
		{
			"mesh":0,
			"name":"Cube"
		}
	],
	"materials":[
		{
			"doubleSided":true,
			"name":"top",
			"pbrMetallicRoughness":{
				"baseColorTexture":{
					"index":0
				},
				"metallicFactor":0,
				"roughnessFactor":0.5
			}
		},
		{
			"doubleSided":true,
			"name":"bottom",
			"pbrMetallicRoughness":{
				"baseColorTexture":{
					"index":1
				},
				"metallicFactor":0,
				"roughnessFactor":0.5
			}
		},
		{
			"doubleSided":true,
			"name":"front",
			"pbrMetallicRoughness":{
				"baseColorTexture":{
					"index":2
				},
				"metallicFactor":0,
				"roughnessFactor":0.5
			}
		},
		{
			"doubleSided":true,
			"name":"back",
			"pbrMetallicRoughness":{
				"baseColorTexture":{
					"index":3
				},
				"metallicFactor":0,
				"roughnessFactor":0.5
			}
		},
		{
			"doubleSided":true,
			"name":"left",
			"pbrMetallicRoughness":{
				"baseColorTexture":{
					"index":4
				},
				"metallicFactor":0,
				"roughnessFactor":0.5
			}
		},
		{
			"doubleSided":true,
			"name":"right",
			"pbrMetallicRoughness":{
				"baseColorTexture":{
					"index":5
				},
				"metallicFactor":0,
				"roughnessFactor":0.5
			}
		}
	],
	"meshes":[
		{
			"name":"Cube",
			"primitives":[
				{
					"attributes":{
						"POSITION":0,
						"NORMAL":1,
						"TEXCOORD_0":2
					},
					"indices":3,
					"material":0
				},
				{
					"attributes":{
						"POSITION":4,
						"NORMAL":5,
						"TEXCOORD_0":6
					},
					"indices":7,
					"material":1
				},
				{
					"attributes":{
						"POSITION":8,
						"NORMAL":9,
						"TEXCOORD_0":10
					},
					"indices":11,
					"material":2
				},
				{
					"attributes":{
						"POSITION":12,
						"NORMAL":13,
						"TEXCOORD_0":14
					},
					"indices":15,
					"material":3
				},
				{
					"attributes":{
						"POSITION":16,
						"NORMAL":17,
						"TEXCOORD_0":18
					},
					"indices":11,
					"material":4
				},
				{
					"attributes":{
						"POSITION":19,
						"NORMAL":20,
						"TEXCOORD_0":21
					},
					"indices":15,
					"material":5
				}
			]
		}
	],
	"textures":[
		{
			"sampler":0,
			"source":0
		},
		{
			"sampler":0,
			"source":0
		},
		{
			"sampler":0,
			"source":0
		},
		{
			"sampler":0,
			"source":0
		},
		{
			"sampler":0,
			"source":0
		},
		{
			"sampler":0,
			"source":0
		}
	],
	"images":[
		{
			"bufferView":4,
			"mimeType":"image/png",
			"name":"Baked"
		}
	],
	"accessors":[
		{
			"bufferView":0,
			"componentType":5126,
			"count":4,
			"max":[
				0.05999999865889549,
				0.013000000268220901,
				0.014999999664723873
			],
			"min":[
				-0.05999999865889549,
				0.013000000268220901,
				-0.014999999664723873
			],
			"type":"VEC3"
		},
		{
			"bufferView":1,
			"componentType":5126,
			"count":4,
			"type":"VEC3"
		},
		{
			"bufferView":2,
			"componentType":5126,
			"count":4,
			"type":"VEC2"
		},
		{
			"bufferView":3,
			"componentType":5123,
			"count":6,
			"type":"SCALAR"
		},
		{
			"bufferView":5,
			"componentType":5126,
			"count":4,
			"max":[
				0.05999999865889549,
				-0.013000000268220901,
				0.014999999664723873
			],
			"min":[
				-0.05999999865889549,
				-0.013000000268220901,
				-0.014999999664723873
			],
			"type":"VEC3"
		},
		{
			"bufferView":6,
			"componentType":5126,
			"count":4,
			"type":"VEC3"
		},
		{
			"bufferView":7,
			"componentType":5126,
			"count":4,
			"type":"VEC2"
		},
		{
			"bufferView":8,
			"componentType":5123,
			"count":6,
			"type":"SCALAR"
		},
		{
			"bufferView":9,
			"componentType":5126,
			"count":4,
			"max":[
				0.05999999865889549,
				0.013000000268220901,
				-0.014999999664723873
			],
			"min":[
				-0.05999999865889549,
				-0.013000000268220901,
				-0.014999999664723873
			],
			"type":"VEC3"
		},
		{
			"bufferView":10,
			"componentType":5126,
			"count":4,
			"type":"VEC3"
		},
		{
			"bufferView":11,
			"componentType":5126,
			"count":4,
			"type":"VEC2"
		},
		{
			"bufferView":12,
			"componentType":5123,
			"count":6,
			"type":"SCALAR"
		},
		{
			"bufferView":13,
			"componentType":5126,
			"count":4,
			"max":[
				0.05999999865889549,
				0.013000000268220901,
				0.014999999664723873
			],
			"min":[
				-0.05999999865889549,
				-0.013000000268220901,
				0.014999999664723873
			],
			"type":"VEC3"
		},
		{
			"bufferView":14,
			"componentType":5126,
			"count":4,
			"type":"VEC3"
		},
		{
			"bufferView":15,
			"componentType":5126,
			"count":4,
			"type":"VEC2"
		},
		{
			"bufferView":16,
			"componentType":5123,
			"count":6,
			"type":"SCALAR"
		},
		{
			"bufferView":17,
			"componentType":5126,
			"count":4,
			"max":[
				-0.05999999865889549,
				0.013000000268220901,
				0.014999999664723873
			],
			"min":[
				-0.05999999865889549,
				-0.013000000268220901,
				-0.014999999664723873
			],
			"type":"VEC3"
		},
		{
			"bufferView":18,
			"componentType":5126,
			"count":4,
			"type":"VEC3"
		},
		{
			"bufferView":19,
			"componentType":5126,
			"count":4,
			"type":"VEC2"
		},
		{
			"bufferView":20,
			"componentType":5126,
			"count":4,
			"max":[
				0.05999999865889549,
				0.013000000268220901,
				0.014999999664723873
			],
			"min":[
				0.05999999865889549,
				-0.013000000268220901,
				-0.014999999664723873
			],
			"type":"VEC3"
		},
		{
			"bufferView":21,
			"componentType":5126,
			"count":4,
			"type":"VEC3"
		},
		{
			"bufferView":22,
			"componentType":5126,
			"count":4,
			"type":"VEC2"
		}
	],
	"bufferViews":[
		{
			"buffer":0,
			"byteLength":48,
			"byteOffset":0,
			"target":34962
		},
		{
			"buffer":0,
			"byteLength":48,
			"byteOffset":48,
			"target":34962
		},
		{
			"buffer":0,
			"byteLength":32,
			"byteOffset":96,
			"target":34962
		},
		{
			"buffer":0,
			"byteLength":12,
			"byteOffset":128,
			"target":34963
		},
		{
			"buffer":0,
			"byteLength":1155433,
			"byteOffset":140
		},
		{
			"buffer":0,
			"byteLength":48,
			"byteOffset":1155576,
			"target":34962
		},
		{
			"buffer":0,
			"byteLength":48,
			"byteOffset":1155624,
			"target":34962
		},
		{
			"buffer":0,
			"byteLength":32,
			"byteOffset":1155672,
			"target":34962
		},
		{
			"buffer":0,
			"byteLength":12,
			"byteOffset":1155704,
			"target":34963
		},
		{
			"buffer":0,
			"byteLength":48,
			"byteOffset":1155716,
			"target":34962
		},
		{
			"buffer":0,
			"byteLength":48,
			"byteOffset":1155764,
			"target":34962
		},
		{
			"buffer":0,
			"byteLength":32,
			"byteOffset":1155812,
			"target":34962
		},
		{
			"buffer":0,
			"byteLength":12,
			"byteOffset":1155844,
			"target":34963
		},
		{
			"buffer":0,
			"byteLength":48,
			"byteOffset":1155856,
			"target":34962
		},
		{
			"buffer":0,
			"byteLength":48,
			"byteOffset":1155904,
			"target":34962
		},
		{
			"buffer":0,
			"byteLength":32,
			"byteOffset":1155952,
			"target":34962
		},
		{
			"buffer":0,
			"byteLength":12,
			"byteOffset":1155984,
			"target":34963
		},
		{
			"buffer":0,
			"byteLength":48,
			"byteOffset":1155996,
			"target":34962
		},
		{
			"buffer":0,
			"byteLength":48,
			"byteOffset":1156044,
			"target":34962
		},
		{
			"buffer":0,
			"byteLength":32,
			"byteOffset":1156092,
			"target":34962
		},
		{
			"buffer":0,
			"byteLength":48,
			"byteOffset":1156124,
			"target":34962
		},
		{
			"buffer":0,
			"byteLength":48,
			"byteOffset":1156172,
			"target":34962
		},
		{
			"buffer":0,
			"byteLength":32,
			"byteOffset":1156220,
			"target":34962
		}
	],
	"samplers":[
		{
			"magFilter":9729,
			"minFilter":9987
		}
	],
	"buffers":[
		{
			"byteLength":1156252,
			"uri":"data:application/octet-stream;base64,"
		}
	]
}
